<?xml version="1.0" encoding="UTF-8"?>
<svg width="57px" height="57px" viewBox="0 0 57 57" version="1.1" xmlns="http://www.w3.org/2000/svg" xmlns:xlink="http://www.w3.org/1999/xlink">
    <!-- Generator: Sketch 43.2 (39069) - http://www.bohemiancoding.com/sketch -->
    <title>Shape</title>
    <desc>Created with Sketch.</desc>
    <defs></defs>
    <g id="-Home" stroke="none" stroke-width="1" fill="none" fill-rule="evenodd">
        <g id="2---01-Home" transform="translate(-1129.000000, -634.000000)" fill-rule="nonzero" fill="#FFFFFF">
            <g id="Social-Icons" transform="translate(735.000000, 634.000000)">
                <g id="Github-Icon" transform="translate(394.000000, 0.000000)">
                    <path d="M28.15625,0 C12.6093073,0 0,13.0611309 0,29.1705882 C0,42.0591265 8.06676563,52.9932353 19.2565286,56.8510456 C20.6619948,57.1208735 21.1171875,56.2165853 21.1171875,55.4484265 L21.1171875,50.0178353 C13.2850573,51.7826559 11.6543411,46.5757059 11.6543411,46.5757059 C10.3732318,43.2040721 8.52665104,42.3070765 8.52665104,42.3070765 C5.97147135,40.4960691 8.72139844,40.5349632 8.72139844,40.5349632 C11.5487552,40.7391574 13.0363437,43.5419647 13.0363437,43.5419647 C15.5469427,48.0002029 19.6225599,46.7118353 21.2298125,45.9655544 C21.4808724,44.0816206 22.2105885,42.7932529 23.0177344,42.0664191 C16.7647005,41.325 10.1902161,38.8236221 10.1902161,27.6488559 C10.1902161,24.4619691 11.2906562,21.860925 13.0903099,19.8189838 C12.799362,19.0824265 11.8350104,16.1143191 13.3648333,12.0985015 C13.3648333,12.0985015 15.7299583,11.3157574 21.1101484,15.0884868 C23.3556094,14.4418721 25.7629688,14.1185647 28.15625,14.1064103 C30.5495312,14.1185647 32.959237,14.4418721 35.2093906,15.0884868 C40.584888,11.3157574 42.9453203,12.0985015 42.9453203,12.0985015 C44.4774896,16.11675 43.513138,19.0848574 43.2221901,19.8189838 C45.0288828,21.860925 46.1199375,24.4644 46.1199375,27.6488559 C46.1199375,38.8527926 39.5337214,41.3201382 33.264263,42.0421103 C34.2731953,42.9463985 35.1953125,44.7209426 35.1953125,47.4435309 L35.1953125,55.4484265 C35.1953125,56.2238779 35.6458125,57.1354588 37.0747422,56.8486147 C48.2551198,52.9859426 56.3125,42.0542647 56.3125,29.1705882 C56.3125,13.0611309 43.7055391,0 28.15625,0 Z" id="Shape"></path>
                </g>
            </g>
        </g>
    </g>
</svg>