<?xml version="1.0" encoding="UTF-8"?>
<svg width="57px" height="57px" viewBox="0 0 57 57" version="1.1" xmlns="http://www.w3.org/2000/svg" xmlns:xlink="http://www.w3.org/1999/xlink">
    <!-- Generator: Sketch 43.2 (39069) - http://www.bohemiancoding.com/sketch -->
    <title>Shape</title>
    <desc>Created with Sketch.</desc>
    <defs></defs>
    <g id="-Home" stroke="none" stroke-width="1" fill="none" fill-rule="evenodd">
        <g id="2---01-Home" transform="translate(-883.000000, -634.000000)" fill-rule="nonzero" fill="#FFFFFF">
            <g id="Social-Icons" transform="translate(735.000000, 634.000000)">
                <g id="Instagram-Icon" transform="translate(148.000000, 0.000000)">
                    <path d="M28.15625,5.137125 C35.6739687,5.137125 36.5655833,5.165625 39.5360677,5.303375 C47.1664115,5.654875 50.7305234,9.3195 51.0777839,16.986 C51.2138724,19.990375 51.2396823,20.892875 51.2396823,28.502375 C51.2396823,36.11425 51.211526,37.014375 51.0777839,40.01875 C50.7281771,47.678125 47.1734505,51.349875 39.5360677,51.701375 C36.5655833,51.839125 35.6786615,51.867625 28.15625,51.867625 C20.6385312,51.867625 19.7469167,51.839125 16.7787786,51.701375 C9.12966406,51.3475 5.58432292,47.66625 5.2370625,40.016375 C5.10097396,37.012 5.07281771,36.111875 5.07281771,28.5 C5.07281771,20.8905 5.10332031,19.990375 5.2370625,16.983625 C5.58666927,9.3195 9.14139583,5.6525 16.7787786,5.301 C19.749263,5.165625 20.6385312,5.137125 28.15625,5.137125 L28.15625,5.137125 Z M28.15625,6.67868538e-16 C20.5094818,6.67868538e-16 19.5521693,0.03325 16.5488359,0.171 C6.32342448,0.646 0.640554687,6.38875 0.171283854,16.7485 C0.0328489583,19.790875 -4.85722573e-16,20.759875 -4.85722573e-16,28.5 C-4.85722573e-16,36.240125 0.0328489583,37.2115 0.1689375,40.2515 C0.638208333,50.60175 6.31169271,56.354 16.5464896,56.829 C19.5521693,56.96675 20.5094818,57 28.15625,57 C35.8030182,57 36.7626771,56.96675 39.7660104,56.829 C49.9820365,56.354 55.6789844,50.61125 56.1412161,40.2515 C56.279651,37.2115 56.3125,36.240125 56.3125,28.5 C56.3125,20.759875 56.279651,19.790875 56.1435625,16.750875 C55.6836771,6.410125 50.0031536,0.648375 39.7683568,0.173375 C36.7626771,0.03325 35.8030182,-4.85722573e-16 28.15625,-4.85722573e-16 L28.15625,6.67868538e-16 Z M28.15625,13.86525 C20.1716068,13.86525 13.6980156,20.417875 13.6980156,28.5 C13.6980156,36.582125 20.1716068,43.137125 28.15625,43.137125 C36.1408932,43.137125 42.6144844,36.5845 42.6144844,28.5 C42.6144844,20.417875 36.1408932,13.86525 28.15625,13.86525 Z M28.15625,38 C22.9731536,38 18.7708333,33.74875 18.7708333,28.5 C18.7708333,23.253625 22.9731536,19 28.15625,19 C33.3393464,19 37.5416667,23.253625 37.5416667,28.5 C37.5416667,33.74875 33.3393464,38 28.15625,38 Z M43.1869948,9.868125 C41.3192969,9.868125 39.8058984,11.4 39.8058984,13.288125 C39.8058984,15.17625 41.3192969,16.708125 43.1869948,16.708125 C45.0523464,16.708125 46.5633984,15.17625 46.5633984,13.288125 C46.5633984,11.4 45.0523464,9.868125 43.1869948,9.868125 Z" id="Shape"></path>
                </g>
            </g>
        </g>
    </g>
</svg>