<?xml version="1.0" encoding="UTF-8"?>
<svg width="943px" height="644px" viewBox="0 0 943 644" version="1.1" xmlns="http://www.w3.org/2000/svg" xmlns:xlink="http://www.w3.org/1999/xlink">
    <!-- Generator: Sketch 50.2 (55047) - http://www.bohemiancoding.com/sketch -->
    <title>logo copy 6</title>
    <desc>Created with Sketch.</desc>
    <defs></defs>
    <g id="Page-1" stroke="none" stroke-width="1" fill="none" fill-rule="evenodd">
        <g id="Desktop" transform="translate(-90.000000, -91.000000)" fill="#009FE6">
            <g id="logo-copy-6" transform="translate(90.000000, 91.000000)">
                <path d="M559.394896,643.816305 C608.318486,604.938821 640.988561,534.680159 640.988561,454.463765 C640.988561,332.11268 656.541526,269.099747 471.22768,269.099747 C285.913834,269.099747 301.466799,332.11268 301.466799,454.463765 C301.466799,534.664029 334.123737,604.910566 383.030954,643.79285 C180.513266,635.608529 170.593134,454.313795 170.107206,360.983837 C84.8787221,353.854694 0,311.665605 0,181.067442 C9.02675018e-15,35.9658222 104.777785,0 198.399281,0 C267.145993,0 326.334633,43.7114244 352.933809,106.53354 C386.487438,96.6912458 425.736297,91.0337434 471.509508,91.0337434 C517.677598,91.0337434 557.208282,96.7892799 590.952324,106.789198 C617.963696,45.072652 676.607336,2.31396092 744.600719,2.31396092 C838.222215,2.31396092 943,38.2797831 943,183.381403 C943,313.976982 858.124636,356.166985 772.897852,363.297375 C772.249603,457.367825 760.822651,636.026572 559.394991,643.816301 Z" id="Combined-Shape"></path>
                <path d="M472.25209,581 C512.349028,581 556,525.483309 556,457 C556,388.516691 512.349028,333 472.25209,333 C432.155152,333 388,388.516691 388,457 C388,525.483309 432.155152,581 472.25209,581 Z" id="Oval-2"></path>
            </g>
        </g>
    </g>
</svg>