<?xml version="1.0" encoding="UTF-8"?>
<svg width="287px" height="287px" viewBox="0 0 287 287" version="1.1" xmlns="http://www.w3.org/2000/svg" xmlns:xlink="http://www.w3.org/1999/xlink">
    <!-- Generator: Sketch 50.2 (55047) - http://www.bohemiancoding.com/sketch -->
    <title>Group</title>
    <desc>Created with Sketch.</desc>
    <defs></defs>
    <g id="Page-1" stroke="none" stroke-width="1" fill="none" fill-rule="evenodd">
        <g id="Desktop" transform="translate(-2001.000000, -1341.000000)">
            <g id="Group" transform="translate(2001.000000, 1341.000000)">
                <rect id="Rectangle-2-Copy-4" stroke="#009FE6" stroke-width="5" x="2.5" y="2.5" width="282" height="282" rx="10"></rect>
                <g id="logo-copy-5" transform="translate(23.000000, 41.000000)" fill="#009FE6">
                    <path d="M163.585998,89.7426746 C166.888694,87.6029753 166.888694,83.7903782 166.888694,79.4434036 C166.888694,72.7481345 161.485963,67.3205466 154.821357,67.3205466 C151.063739,67.3205466 147.707257,69.0459209 145.494085,71.7510826 C139.421439,70.1764372 131.432862,69.3840116 120.930115,69.3840116 C110.427368,69.3840116 102.438791,70.1764372 96.3661446,71.7510826 C94.1529726,69.0459209 90.7964912,67.3205466 87.0388726,67.3205466 C80.3742668,67.3205466 74.9715363,72.7481345 74.9715363,79.4434036 C74.9715363,83.7903782 74.9715363,87.6029753 78.2742324,89.7426746 C76.8769722,96.9909522 77.3647564,106.14949 77.3647564,117.17781 C77.3647564,137.856448 85.7454341,155.968641 98.2963847,165.993952 C46.3247193,163.883727 43.7789379,117.139143 43.6542353,93.0751776 C21.7822383,91.237017 0,80.3590869 0,46.6859803 C2.31651489e-15,9.27333843 26.8888908,0 50.9147678,0 C68.557084,0 83.7465336,11.2704453 90.5726212,27.4683439 C99.1834147,24.9306311 109.255762,23.4719147 121.00244,23.4719147 C132.850455,23.4719147 142.995126,24.955908 151.654785,27.5342621 C158.586654,11.6214208 173.636241,0.596625946 191.085232,0.596625946 C215.111109,0.596625946 242,9.86996438 242,47.2826062 C242,80.9550467 220.218623,91.8332125 198.347063,93.6716945 C198.180704,117.926586 195.248231,163.991515 143.556297,165.999999 C156.111425,155.975926 164.495474,137.860607 164.495474,117.17781 C164.495474,106.14949 164.983258,96.9909522 163.585995,89.7426764 Z" id="Combined-Shape"></path>
                    <path d="M121.064556,149.804878 C131.332767,149.804878 142.511111,135.504683 142.511111,117.864499 C142.511111,100.224314 131.332767,85.9241192 121.064556,85.9241192 C110.796346,85.9241192 99.4888889,100.224314 99.4888889,117.864499 C99.4888889,135.504683 110.796346,149.804878 121.064556,149.804878 Z" id="Oval-2"></path>
                </g>
                <path d="M51.4108335,257.64624 C52.5298102,258.714026 53.0892901,259.952639 53.0892901,261.362117 C53.0892901,262.771595 52.5513287,264.010208 51.4753896,265.077994 C50.3994505,266.145781 49.1298614,266.679666 47.6665842,266.679666 C46.0741944,266.679666 44.6109391,265.996293 43.2767747,264.629526 L24.8783082,245.922006 L24.8783082,261.041783 C24.8783082,262.835664 24.3403467,264.255798 23.2644076,265.302228 C22.1884685,266.348659 20.7252133,266.871866 18.8745981,266.871866 C17.0670204,266.871866 15.6360429,266.348659 14.5816226,265.302228 C13.5272022,264.255798 13,262.835664 13,261.041783 L13,226.766017 C13,225.014847 13.5272022,223.616068 14.5816226,222.569638 C15.6360429,221.523207 17.0670204,221 18.8745981,221 C20.7252133,221 22.1884685,221.523207 23.2644076,222.569638 C24.3403467,223.616068 24.8783082,225.014847 24.8783082,226.766017 L24.8783082,240.860724 L43.0185506,222.729805 C44.1375272,221.576596 45.4071163,221 46.8273559,221 C48.2475955,221 49.4956662,221.523207 50.5716052,222.569638 C51.6475443,223.616068 52.1855058,224.844004 52.1855058,226.253482 C52.1855058,227.66296 51.5614705,228.965639 50.3133812,230.16156 L37.0793965,243.038997 L51.4108335,257.64624 Z M73.2953253,267 C69.8092826,267 66.7429022,266.327305 64.096092,264.981894 C61.4492818,263.636484 59.4050282,261.725175 57.9632698,259.247911 C56.5215115,256.770647 55.8006431,253.866312 55.8006431,250.534819 C55.8006431,247.203326 56.5215115,244.309669 57.9632698,241.85376 C59.4050282,239.397852 61.4385226,237.507899 64.063814,236.183844 C66.6891054,234.859789 69.766245,234.197772 73.2953253,234.197772 C76.8244055,234.197772 79.9015451,234.859789 82.5268365,236.183844 C85.1521279,237.507899 87.1856223,239.397852 88.6273807,241.85376 C90.069139,244.309669 90.7900074,247.203326 90.7900074,250.534819 C90.7900074,253.866312 90.069139,256.770647 88.6273807,259.247911 C87.1856223,261.725175 85.1521279,263.636484 82.5268365,264.981894 C79.9015451,266.327305 76.8244055,267 73.2953253,267 Z M73.2953253,258.479109 C77.3838938,258.479109 79.4281474,255.831039 79.4281474,250.534819 C79.4281474,245.238599 77.3838938,242.590529 73.2953253,242.590529 C69.2067567,242.590529 67.1625031,245.238599 67.1625031,250.534819 C67.1625031,255.831039 69.2067567,258.479109 73.2953253,258.479109 Z M122.293347,234.325905 C124.057887,234.325905 125.456586,234.795724 126.489488,235.735376 C127.52239,236.675028 128.038833,237.956352 128.038833,239.579387 L128.038833,261.746518 C128.038833,263.241419 127.500871,264.469355 126.424932,265.430362 C125.348993,266.39137 123.950293,266.871866 122.228791,266.871866 C120.679438,266.871866 119.409849,266.455436 118.419985,265.622563 C117.430121,264.789689 116.913678,263.668531 116.870641,262.259053 C115.880777,263.796665 114.621947,264.971212 113.094113,265.78273 C111.56628,266.594247 109.812525,267 107.832797,267 C103.744229,267 100.710126,265.878841 98.7303982,263.63649 C96.7506703,261.394139 95.7608212,257.987952 95.7608212,253.417827 L95.7608212,239.579387 C95.7608212,237.956352 96.2772642,236.675028 97.3101657,235.735376 C98.3430672,234.795724 99.7417671,234.325905 101.506307,234.325905 C103.270847,234.325905 104.669547,234.795724 105.702449,235.735376 C106.73535,236.675028 107.251793,237.956352 107.251793,239.579387 L107.251793,253.674095 C107.251793,256.749319 108.585938,258.286908 111.254267,258.286908 C112.803619,258.286908 114.073208,257.731668 115.063072,256.62117 C116.052936,255.510672 116.54786,254.058505 116.54786,252.264624 L116.54786,239.579387 C116.54786,237.956352 117.064304,236.675028 118.097205,235.735376 C119.130107,234.795724 120.528806,234.325905 122.293347,234.325905 Z M177.165966,237.529248 C177.596342,236.461462 178.209618,235.660634 179.005813,235.126741 C179.802007,234.592848 180.673505,234.325905 181.620331,234.325905 C183.040571,234.325905 184.31016,234.806402 185.429137,235.767409 C186.548113,236.728417 187.107593,237.892287 187.107593,239.259053 C187.107593,239.899725 186.935446,240.604453 186.591145,241.373259 L176.13307,263.604457 C175.659656,264.672243 174.938788,265.494426 173.970443,266.071031 C173.002098,266.647635 171.936934,266.935933 170.77492,266.935933 C169.612905,266.935933 168.558501,266.647635 167.611674,266.071031 C166.664848,265.494426 165.954739,264.672243 165.481326,263.604457 L159.348504,250.086351 L153.603018,263.604457 C153.172642,264.672243 152.473292,265.494426 151.504947,266.071031 C150.536602,266.647635 149.471438,266.935933 148.309424,266.935933 C147.147409,266.935933 146.082246,266.647635 145.113901,266.071031 C144.145555,265.494426 143.403169,264.672243 142.886718,263.604457 L132.493198,241.373259 C132.191935,240.732587 132.041306,240.049214 132.041306,239.32312 C132.041306,237.913642 132.633064,236.728417 133.816597,235.767409 C135.00013,234.806402 136.323515,234.325905 137.786792,234.325905 C138.819694,234.325905 139.755746,234.592848 140.594979,235.126741 C141.434211,235.660634 142.069006,236.482817 142.499382,237.593315 L148.632204,252.392758 L154.894138,237.657382 C155.324514,236.589595 155.991586,235.77809 156.895375,235.222841 C157.799164,234.667592 158.767494,234.389972 159.800396,234.389972 C160.833297,234.389972 161.801628,234.667592 162.705417,235.222841 C163.609206,235.77809 164.276278,236.589595 164.706653,237.657382 L171.162256,252.456825 L177.165966,237.529248 Z M205.82884,234.197772 C210.735122,234.197772 214.360983,235.361641 216.70653,237.689415 C219.052077,240.017189 220.224833,243.551508 220.224833,248.292479 L220.224833,261.682451 C220.224833,263.305486 219.740668,264.576133 218.772323,265.494429 C217.803977,266.412725 216.459074,266.871866 214.737571,266.871866 C213.231256,266.871866 211.993945,266.444758 211.0256,265.590529 C210.057255,264.7363 209.530052,263.583108 209.443977,262.130919 C208.841451,263.668531 207.830084,264.864434 206.409844,265.718663 C204.989605,266.572892 203.289646,267 201.309918,267 C199.115003,267 197.135304,266.562214 195.370764,265.68663 C193.606224,264.811045 192.218284,263.593787 191.206901,262.034819 C190.195518,260.475851 189.689834,258.71403 189.689834,256.749304 C189.689834,254.485597 190.281592,252.681065 191.465125,251.335655 C192.648658,249.990244 194.531523,249.018573 197.113777,248.420613 C199.696031,247.822653 203.182021,247.523677 207.571853,247.523677 L209.314865,247.523677 L209.314865,246.754875 C209.314865,245.259974 208.97057,244.181526 208.281969,243.519499 C207.593368,242.857471 206.431371,242.526462 204.795944,242.526462 C203.031403,242.526462 200.449188,243.124414 197.049221,244.320334 C196.059357,244.662026 195.220137,244.832869 194.531536,244.832869 C193.455597,244.832869 192.594859,244.448472 191.949295,243.679666 C191.303732,242.91086 190.980955,241.907156 190.980955,240.668524 C190.980955,239.728872 191.174621,238.960077 191.561959,238.362117 C191.949297,237.764157 192.573332,237.230272 193.434084,236.760446 C194.940398,235.99164 196.834023,235.372333 199.115014,234.902507 C201.396004,234.432681 203.633924,234.197772 205.82884,234.197772 Z M204.021271,259.376045 C205.570624,259.376045 206.840213,258.831482 207.830077,257.74234 C208.819941,256.653198 209.314865,255.254419 209.314865,253.545961 L209.314865,252.777159 L208.281969,252.777159 C205.527565,252.777159 203.569385,253.022746 202.407371,253.513928 C201.245357,254.005109 200.664358,254.827292 200.664358,255.980501 C200.664358,256.962865 200.976376,257.77437 201.60042,258.415042 C202.224465,259.055714 203.031407,259.376045 204.021271,259.376045 Z M232.425921,266.871866 C230.790494,266.871866 229.424072,266.434081 228.326614,265.558496 C227.229156,264.682911 226.680435,263.369554 226.680435,261.618384 L226.680435,226.317549 C226.680435,224.566379 227.229156,223.242344 228.326614,222.345404 C229.424072,221.448463 230.790494,221 232.425921,221 C234.061349,221 235.427771,221.448463 236.525229,222.345404 C237.622687,223.242344 238.171407,224.566379 238.171407,226.317549 L238.171407,261.618384 C238.171407,263.369554 237.622687,264.682911 236.525229,265.558496 C235.427771,266.434081 234.061349,266.871866 232.425921,266.871866 Z M259.604007,234.197772 C264.510289,234.197772 268.13615,235.361641 270.481697,237.689415 C272.827244,240.017189 274,243.551508 274,248.292479 L274,261.682451 C274,263.305486 273.515835,264.576133 272.547489,265.494429 C271.579144,266.412725 270.234241,266.871866 268.512738,266.871866 C267.006423,266.871866 265.769112,266.444758 264.800767,265.590529 C263.832422,264.7363 263.305219,263.583108 263.219144,262.130919 C262.616618,263.668531 261.605251,264.864434 260.185011,265.718663 C258.764772,266.572892 257.064813,267 255.085085,267 C252.89017,267 250.910471,266.562214 249.145931,265.68663 C247.381391,264.811045 245.993451,263.593787 244.982068,262.034819 C243.970685,260.475851 243.465001,258.71403 243.465001,256.749304 C243.465001,254.485597 244.056759,252.681065 245.240292,251.335655 C246.423825,249.990244 248.30669,249.018573 250.888944,248.420613 C253.471198,247.822653 256.957188,247.523677 261.34702,247.523677 L263.090032,247.523677 L263.090032,246.754875 C263.090032,245.259974 262.745737,244.181526 262.057136,243.519499 C261.368535,242.857471 260.206538,242.526462 258.571111,242.526462 C256.80657,242.526462 254.224355,243.124414 250.824388,244.320334 C249.834524,244.662026 248.995304,244.832869 248.306703,244.832869 C247.230764,244.832869 246.370025,244.448472 245.724462,243.679666 C245.078899,242.91086 244.756122,241.907156 244.756122,240.668524 C244.756122,239.728872 244.949788,238.960077 245.337126,238.362117 C245.724464,237.764157 246.348499,237.230272 247.209251,236.760446 C248.715565,235.99164 250.60919,235.372333 252.890181,234.902507 C255.171171,234.432681 257.409091,234.197772 259.604007,234.197772 Z M257.796438,259.376045 C259.345791,259.376045 260.61538,258.831482 261.605244,257.74234 C262.595108,256.653198 263.090032,255.254419 263.090032,253.545961 L263.090032,252.777159 L262.057136,252.777159 C259.302732,252.777159 257.344552,253.022746 256.182538,253.513928 C255.020523,254.005109 254.439525,254.827292 254.439525,255.980501 C254.439525,256.962865 254.751543,257.77437 255.375587,258.415042 C255.999632,259.055714 256.806574,259.376045 257.796438,259.376045 Z" id="Kouwala-Copy-6" fill="#009FE6"></path>
            </g>
        </g>
    </g>
</svg>