<svg width="214px" height="235px" viewBox="0 0 214 235" version="1.1" xmlns="http://www.w3.org/2000/svg" xmlns:xlink="http://www.w3.org/1999/xlink">
    <g id="Logo" stroke="none" stroke-width="1" fill="none" fill-rule="evenodd">
        <g id="Logo-Draft" transform="translate(-253.000000, -365.000000)">
            <g id="Group-3" transform="translate(253.000000, 365.000000)">
                <g id="Group">
                    <path d="M98.0483295,0.190432944 C15.7883355,3.75436411 2.5766434,56.7327381 0.454727272,107.641086 C17.2670303,111.735343 62.7499687,121.703996 107.04872,121.703996 C151.289565,121.703996 196.758748,111.761387 213.643383,107.657172 C211.5213,56.6891487 198.289354,3.64077266 115.783467,0.179105776 C115.816365,0.43209537 115.833333,0.690011948 115.833333,0.951807229 C115.833333,4.2388996 113.163503,6.90361446 109.882698,6.90361446 L103.950636,6.90361446 C100.66419,6.90361446 98,4.23221102 98,0.951807229 C98,0.693854041 98.0164415,0.439733614 98.0483295,0.190432944 Z" id="Combined-Shape" fill="#37A1E5"></path>
                    <path d="M9.32969056,109.03166 C9.42442775,107.928444 10.3734378,106.839852 11.4545059,106.609244 C11.4545059,106.609244 31.1742929,102 52.9214036,102 C74.6685143,102 94.4681624,106.611406 94.4681624,106.611406 C95.5447468,106.844859 96.5600649,107.915486 96.7070455,109.013696 C96.7070455,109.013696 98.0510599,115.669994 96.4174909,125.807229 C94.7839219,135.944464 90.9187404,144.235996 90.9187404,144.235996 C90.4816612,145.247852 89.2567359,146.234413 88.1521346,146.434286 C88.1521346,146.434286 72.4961909,149.614458 52.921617,149.614458 C33.3470432,149.614458 15.7223868,146.401753 15.7223868,146.401753 C14.6304087,146.217494 13.4978241,145.204038 13.2025118,144.134862 C13.2025118,144.134862 10.5182899,135.161711 9.50122741,125.807229 C8.48416494,116.452747 9.32969056,109.03166 9.32969056,109.03166 Z" id="Rectangle-8-Copy" fill="#37A1E5"></path>
                    <path d="M117.329691,109.03166 C117.424428,107.928444 118.373438,106.839852 119.454506,106.609244 C119.454506,106.609244 139.174293,102 160.921404,102 C182.668514,102 202.468162,106.611406 202.468162,106.611406 C203.544747,106.844859 204.560065,107.915486 204.707045,109.013696 C204.707045,109.013696 206.05106,115.669994 204.417491,125.807229 C202.783922,135.944464 198.91874,144.235996 198.91874,144.235996 C198.481661,145.247852 197.256736,146.234413 196.152135,146.434286 C196.152135,146.434286 180.496191,149.614458 160.921617,149.614458 C141.347043,149.614458 123.722387,146.401753 123.722387,146.401753 C122.630409,146.217494 121.497824,145.204038 121.202512,144.134862 C121.202512,144.134862 118.51829,135.161711 117.501227,125.807229 C116.484165,116.452747 117.329691,109.03166 117.329691,109.03166 Z" id="Rectangle-8-Copy-3" fill="#37A1E5" transform="translate(161.113511, 125.807229) scale(-1, 1) translate(-161.113511, -125.807229) "></path>
                    <path d="M87,124.028435 C87,124.028435 97.7,120 108.4,120 C119.1,120 129.8,124.028435 129.8,124.028435 L129.8,131.903614 C129.8,131.903614 119.132742,127.875179 108.424382,127.875179 C97.7160209,127.875179 87,131.903614 87,131.903614 L87,124.028435 Z" id="Rectangle-10-Copy" fill="#37A1E5"></path>
                    <path d="M32.2289901,173.575923 C32.2289901,175.5948 31.8545266,177.296167 31.1055883,178.680075 C30.35665,180.063982 29.3472266,181.179232 28.0772877,182.025858 C26.8073489,182.872484 25.3420569,183.491163 23.6813676,183.881914 C22.0206784,184.272664 20.29489,184.468036 18.5039506,184.468036 L14.3522482,184.468036 L14.3522482,197.509266 L6,197.509266 L6,162.928028 L18.6993248,162.928028 C20.5879518,162.928028 22.3544428,163.115259 23.9988507,163.489728 C25.6432587,163.864198 27.0759887,164.466595 28.2970838,165.29694 C29.5181788,166.127285 30.4787591,167.218113 31.1788536,168.569458 C31.8789481,169.920804 32.2289901,171.589608 32.2289901,173.575923 Z M23.8767418,173.624767 C23.8767418,172.810703 23.7139316,172.143181 23.3883063,171.622181 C23.0626809,171.10118 22.6230933,170.694155 22.0695302,170.401092 C21.5159672,170.108029 20.8891478,169.912657 20.1890533,169.814969 C19.4889588,169.717282 18.7644533,169.668438 18.015515,169.668438 L14.3522482,169.668438 L14.3522482,177.825312 L17.8689843,177.825312 C18.6504852,177.825312 19.3994122,177.760188 20.115788,177.629938 C20.8321637,177.499688 21.4752641,177.271754 22.0451085,176.946128 C22.6149528,176.620503 23.0626809,176.189056 23.3883063,175.651774 C23.7139316,175.114492 23.8767418,174.43883 23.8767418,173.624767 Z M57.7741704,197.509266 L55.0877747,190.720011 L41.7046401,190.720011 L39.1647752,197.509266 L30.0798736,197.509266 L44.58641,162.928028 L52.6944405,162.928028 L67.0544462,197.509266 L57.7741704,197.509266 Z M48.4938946,172.15946 L44.0979744,184.028444 L52.7921276,184.028444 L48.4938946,172.15946 Z M81.8052004,170.059187 L81.8052004,197.509266 L73.4529522,197.509266 L73.4529522,170.059187 L63.6842408,170.059187 L63.6842408,162.928028 L91.5739118,162.928028 L91.5739118,170.059187 L81.8052004,170.059187 Z M113.895417,197.509266 L106.422353,183.784226 L103.589427,183.784226 L103.589427,197.509266 L95.3837092,197.509266 L95.3837092,162.928028 L108.57147,162.928028 C110.232159,162.928028 111.852121,163.098978 113.431404,163.440885 C115.010686,163.782792 116.427135,164.360768 117.680793,165.174831 C118.934451,165.988895 119.935733,167.063442 120.684672,168.398506 C121.43361,169.73357 121.808074,171.394234 121.808074,173.380549 C121.808074,175.725051 121.173114,177.695055 119.903175,179.290619 C118.633236,180.886183 116.874886,182.025855 114.628071,182.709668 L123.664129,197.509266 L113.895417,197.509266 Z M113.553512,173.527079 C113.553512,172.713016 113.382562,172.053635 113.040655,171.548915 C112.698748,171.044196 112.259161,170.653452 111.721879,170.37667 C111.184597,170.099888 110.582199,169.912657 109.914667,169.814969 C109.247135,169.717282 108.604035,169.668438 107.985347,169.668438 L103.540583,169.668438 L103.540583,177.727625 L107.496911,177.727625 C108.180725,177.727625 108.880809,177.670642 109.597184,177.556673 C110.31356,177.442704 110.964801,177.239191 111.550927,176.946128 C112.137052,176.653066 112.617342,176.229759 112.991812,175.676196 C113.366281,175.122633 113.553512,174.406268 113.553512,173.527079 Z M127.766988,197.509266 L127.766988,162.928028 L136.168079,162.928028 L136.168079,197.509266 L127.766988,197.509266 Z M173.728775,192.722597 C172.198335,194.480974 170.309737,195.873002 168.062922,196.898721 C165.816107,197.924441 163.227425,198.437293 160.296796,198.437293 C157.626669,198.437293 155.160094,197.997706 152.896998,197.118517 C150.633901,196.239329 148.672038,194.993831 147.011349,193.381985 C145.35066,191.77014 144.048178,189.840839 143.103864,187.594024 C142.159551,185.347209 141.687401,182.872494 141.687401,180.169803 C141.687401,177.401988 142.167691,174.89471 143.128286,172.647895 C144.088881,170.401081 145.415784,168.48806 147.109036,166.908777 C148.802288,165.329495 150.788573,164.116558 153.06795,163.269932 C155.347327,162.423307 157.805762,162 160.443327,162 C162.885517,162 165.286968,162.431447 167.647752,163.294354 C170.008535,164.157261 171.921556,165.419041 173.38687,167.07973 L167.721017,172.745583 C166.939516,171.671019 165.913812,170.873249 164.643873,170.352248 C163.373934,169.831248 162.071452,169.570751 160.736388,169.570751 C159.271074,169.570751 157.92789,169.839388 156.706795,170.37667 C155.4857,170.913952 154.435574,171.654738 153.556386,172.599052 C152.677197,173.543365 151.993394,174.658615 151.504956,175.944836 C151.016518,177.231056 150.772303,178.639364 150.772303,180.169803 C150.772303,181.732805 151.016518,183.165535 151.504956,184.468036 C151.993394,185.770538 152.669057,186.885788 153.531964,187.81382 C154.394871,188.741852 155.428716,189.466358 156.63353,189.987358 C157.838343,190.508359 159.157106,190.768855 160.589858,190.768855 C162.250547,190.768855 163.699558,190.443235 164.936934,189.791984 C166.174311,189.140733 167.167453,188.29412 167.916391,187.252119 L173.728775,192.722597 Z M198.443614,197.509266 L185.597759,181.586266 L185.500072,181.586266 L185.500072,197.509266 L177.294354,197.509266 L177.294354,162.928028 L185.500072,162.928028 L185.500072,176.994972 L185.646602,176.994972 L198.004022,162.928028 L208.456544,162.928028 L193.559259,178.851027 L209.335728,197.509266 L198.443614,197.509266 Z M9.84747676,216.376834 L9.89213372,216.376834 L24.9415314,202.175919 L29.5411989,202.175919 L13.5986619,216.510805 L30.4343383,233.793051 L25.7006998,233.793051 L9.89213372,216.957375 L9.84747676,216.957375 L9.84747676,233.793051 L6.63217518,233.793051 L6.63217518,202.175919 L9.84747676,202.175919 L9.84747676,216.376834 Z M64.8648593,217.984485 C64.8648593,220.395973 64.4480651,222.613914 63.6144643,224.638373 C62.7808634,226.662832 61.6272366,228.411879 60.1535494,229.885567 C58.6798621,231.359254 56.9382578,232.512881 54.9286843,233.346481 C52.9191108,234.180082 50.7383841,234.596876 48.3864387,234.596876 C46.0344934,234.596876 43.8537667,234.180082 41.8441932,233.346481 C39.8346196,232.512881 38.0930154,231.359254 36.6193281,229.885567 C35.1456408,228.411879 33.9920141,226.662832 33.1584132,224.638373 C32.3248123,222.613914 31.9080181,220.395973 31.9080181,217.984485 C31.9080181,215.572997 32.3248123,213.355056 33.1584132,211.330597 C33.9920141,209.306138 35.1456408,207.557091 36.6193281,206.083403 C38.0930154,204.609716 39.8346196,203.456089 41.8441932,202.622489 C43.8537667,201.788888 46.0344934,201.372094 48.3864387,201.372094 C50.7383841,201.372094 52.9191108,201.788888 54.9286843,202.622489 C56.9382578,203.456089 58.6798621,204.609716 60.1535494,206.083403 C61.6272366,207.557091 62.7808634,209.306138 63.6144643,211.330597 C64.4480651,213.355056 64.8648593,215.572997 64.8648593,217.984485 Z M61.4709299,217.984485 C61.4709299,216.138654 61.1732197,214.382165 60.5777905,212.714963 C59.9823614,211.047761 59.119002,209.581539 57.9876865,208.316252 C56.856371,207.050965 55.4794617,206.046193 53.8569171,205.301907 C52.2343726,204.55762 50.410898,204.185482 48.3864387,204.185482 C46.3619795,204.185482 44.5385049,204.55762 42.9159604,205.301907 C41.2934158,206.046193 39.9165064,207.050965 38.785191,208.316252 C37.6538755,209.581539 36.7905161,211.047761 36.1950869,212.714963 C35.5996577,214.382165 35.3019476,216.138654 35.3019476,217.984485 C35.3019476,219.830315 35.5996577,221.586805 36.1950869,223.254007 C36.7905161,224.921209 37.6538755,226.379988 38.785191,227.63039 C39.9165064,228.880791 41.2934158,229.87812 42.9159604,230.622406 C44.5385049,231.366693 46.3619795,231.738831 48.3864387,231.738831 C50.410898,231.738831 52.2343726,231.366693 53.8569171,230.622406 C55.4794617,229.87812 56.856371,228.880791 57.9876865,227.63039 C59.119002,226.379988 59.9823614,224.921209 60.5777905,223.254007 C61.1732197,221.586805 61.4709299,219.830315 61.4709299,217.984485 Z M83.2188725,234.596876 C80.8371557,234.596876 78.8871543,234.187525 77.3688099,233.36881 C75.8504655,232.550095 74.6447394,231.515552 73.7515956,230.265151 C72.8584518,229.014749 72.2407033,227.652726 71.8983315,226.179038 C71.5559597,224.705351 71.3847764,223.313556 71.3847764,222.003612 L71.3847764,202.175919 L74.600078,202.175919 L74.600078,221.646356 C74.600078,222.926529 74.7489331,224.169469 75.0466476,225.375213 C75.3443622,226.580957 75.8281412,227.652714 76.4979991,228.590514 C77.1678569,229.528315 78.0535445,230.287476 79.1550886,230.86802 C80.2566326,231.448563 81.6112137,231.738831 83.2188725,231.738831 C84.8265313,231.738831 86.1811124,231.448563 87.2826564,230.86802 C88.3842004,230.287476 89.2698881,229.528315 89.9397459,228.590514 C90.6096038,227.652714 91.0933827,226.580957 91.3910973,225.375213 C91.6888119,224.169469 91.837667,222.926529 91.837667,221.646356 L91.837667,202.175919 L95.0529686,202.175919 L95.0529686,222.003612 C95.0529686,223.313556 94.8817853,224.705351 94.5394135,226.179038 C94.1970417,227.652726 93.5792932,229.014749 92.6861494,230.265151 C91.7930056,231.515552 90.5798368,232.550095 89.0466066,233.36881 C87.5133764,234.187525 85.5708178,234.596876 83.2188725,234.596876 Z M106.485152,230.935005 L121.221951,230.935005 L121.221951,233.793051 L103.26985,233.793051 L103.26985,202.175919 L106.485152,202.175919 L106.485152,230.935005 Z M125.821618,233.793051 L122.293718,233.793051 L135.95875,202.175919 L139.084737,202.175919 L152.660455,233.793051 L149.087898,233.793051 L145.604655,225.486855 L129.260205,225.486855 L125.821618,233.793051 Z M130.465943,222.539496 L144.398916,222.539496 L137.43243,205.748476 L130.465943,222.539496 Z M160.520081,230.935005 L175.25688,230.935005 L175.25688,233.793051 L157.30478,233.793051 L157.30478,202.175919 L160.520081,202.175919 L160.520081,230.935005 Z M183.295134,233.793051 L180.079833,233.793051 L180.079833,202.175919 L183.295134,202.175919 L183.295134,233.793051 Z M207.007983,207.266813 C206.32324,206.314126 205.444995,205.547523 204.373222,204.966979 C203.30145,204.386436 202.006411,204.096168 200.488066,204.096168 C199.714008,204.096168 198.925076,204.215253 198.121247,204.453424 C197.317418,204.691596 196.588028,205.056291 195.933056,205.54752 C195.278083,206.038749 194.749648,206.656497 194.347733,207.400784 C193.945819,208.14507 193.744864,209.023315 193.744864,210.035545 C193.744864,211.047775 193.938376,211.881363 194.325405,212.536335 C194.712434,213.191307 195.225984,213.749514 195.86607,214.210971 C196.506157,214.672429 197.235546,215.052009 198.054261,215.349724 C198.872977,215.647439 199.728893,215.945149 200.622037,216.242863 C201.723581,216.600121 202.832551,216.987144 203.948981,217.403944 C205.065411,217.820745 206.070182,218.364066 206.963326,219.033924 C207.85647,219.703782 208.58586,220.552255 209.151518,221.579371 C209.717175,222.606486 210,223.908968 210,225.486855 C210,227.064743 209.694847,228.426767 209.084532,229.572968 C208.474217,230.719169 207.685285,231.664399 206.717713,232.408685 C205.750141,233.152972 204.648613,233.703735 203.413097,234.060993 C202.177582,234.41825 200.934642,234.596876 199.684241,234.596876 C198.731554,234.596876 197.778882,234.500121 196.826195,234.306606 C195.873508,234.113092 194.965492,233.822824 194.10212,233.435795 C193.238748,233.048766 192.43493,232.557545 191.690644,231.962115 C190.946357,231.366686 190.291395,230.681953 189.725737,229.907895 L192.494469,227.853675 C193.179213,228.98499 194.139328,229.93022 195.374844,230.689392 C196.610359,231.448564 198.061696,231.828145 199.728898,231.828145 C200.532727,231.828145 201.35143,231.701618 202.185031,231.44856 C203.018632,231.195503 203.77035,230.80848 204.440208,230.287479 C205.110066,229.766479 205.660829,229.126402 206.092515,228.36723 C206.524202,227.608057 206.740041,226.72237 206.740041,225.71014 C206.740041,224.608596 206.524202,223.693138 206.092515,222.963737 C205.660829,222.234336 205.087737,221.62403 204.373222,221.132801 C203.658707,220.641572 202.840004,220.232221 201.917089,219.904735 C200.994174,219.577248 200.026616,219.249767 199.014386,218.922281 C197.972385,218.594795 196.945285,218.222658 195.933056,217.805857 C194.920826,217.389057 194.01281,216.845736 193.208981,216.175878 C192.405151,215.50602 191.757632,214.679874 191.266403,213.697416 C190.775174,212.714958 190.529563,211.509232 190.529563,210.080202 C190.529563,208.561857 190.834716,207.251933 191.44503,206.150389 C192.055345,205.048845 192.85172,204.140829 193.834178,203.426314 C194.816636,202.711799 195.903278,202.190806 197.094137,201.86332 C198.284995,201.535834 199.46095,201.372094 200.622037,201.372094 C202.765582,201.372094 204.596499,201.751674 206.114844,202.510846 C207.633188,203.270018 208.779372,204.170592 209.55343,205.212593 L207.007983,207.266813 Z" id="Patrick-Koulalis-Copy" fill="#555555"></path>
                </g>
            </g>
        </g>
    </g>
</svg>