<?xml version="1.0" encoding="UTF-8"?>
<svg width="240px" height="240px" viewBox="0 0 240 240" version="1.1" xmlns="http://www.w3.org/2000/svg" xmlns:xlink="http://www.w3.org/1999/xlink">
    <!-- Generator: Sketch 50.2 (55047) - http://www.bohemiancoding.com/sketch -->
    <title>Group 2</title>
    <desc>Created with Sketch.</desc>
    <defs></defs>
    <g id="Logo" stroke="none" stroke-width="1" fill="none" fill-rule="evenodd">
        <g id="Working-Draft" transform="translate(-513.000000, -700.000000)">
            <g id="Group-2" transform="translate(513.000000, 700.000000)">
                <path d="M171.716928,40 L120,40 C75.81722,40 40,75.81722 40,120 C40,164.18278 75.81722,200 120,200 L171.146431,200 L106.655824,135.509393 C102.467741,131.32131 100.448681,125.785569 100.598645,120.298083 C100.441939,114.802337 102.460837,109.256091 106.655337,105.061591 L171.716928,40 Z M239.982108,20.8537186 C240.211701,26.4349829 238.195851,32.0914155 233.934557,36.3527087 L150.001043,120.286223 L233.935045,204.220224 C238.123805,208.408985 240.142841,213.94584 239.992151,219.434197 C239.997372,219.622162 240,219.810774 240,220 C240,231.045695 231.045695,240 220,240 L120,240 C53.72583,240 1.70530257e-13,186.27417 1.70530257e-13,120 C1.70530257e-13,53.72583 53.72583,0 120,0 L220,0 C231.045695,-1.52365243e-15 240,8.954305 240,20 C240,20.2860148 239.993996,20.5706274 239.982108,20.8537186 Z" id="Combined-Shape-Copy" fill="#009FE6"></path>
                <rect id="Rectangle-7-Copy-2" fill="#F4346F" x="200" y="80" width="40" height="80" rx="20"></rect>
            </g>
        </g>
    </g>
</svg>