<?xml version="1.0" encoding="UTF-8"?>
<svg width="69px" height="57px" viewBox="0 0 69 57" version="1.1" xmlns="http://www.w3.org/2000/svg" xmlns:xlink="http://www.w3.org/1999/xlink">
    <!-- Generator: Sketch 43.2 (39069) - http://www.bohemiancoding.com/sketch -->
    <title>Shape</title>
    <desc>Created with Sketch.</desc>
    <defs></defs>
    <g id="-Home" stroke="none" stroke-width="1" fill="none" fill-rule="evenodd">
        <g id="2---01-Home" transform="translate(-735.000000, -634.000000)" fill-rule="nonzero" fill="#FFFFFF">
            <g id="Social-Icons" transform="translate(735.000000, 634.000000)">
                <g id="Twitter-Icon">
                    <path d="M68.293883,6.67399255 C65.7812372,7.80703936 63.0807832,8.5701117 60.2465871,8.91407234 C63.1405404,7.15380319 65.3629372,4.36454255 66.4072645,1.04055319 C63.7011193,2.67075319 60.7018797,3.85582766 57.5091406,4.4946117 C54.9566567,1.72847447 51.3114707,0 47.2821316,0 C38.2360377,0 31.5887665,8.57300213 33.6318918,17.4726223 C21.9906303,16.8800851 11.6668717,11.2148511 4.7549616,2.6042734 C1.08416539,9.00078511 2.85126961,17.368567 9.08877759,21.6059309 C6.79524136,21.5307798 4.63260173,20.8919957 2.74598321,19.8254287 C2.59232197,26.4184894 7.24484275,32.5866574 13.9831725,33.9596096 C12.0111867,34.5030096 9.85139262,34.6301883 7.65460605,34.2024053 C9.43593816,39.8560777 14.6091998,43.9691532 20.744267,44.0847702 C14.8539195,48.7759309 7.43265093,50.8714894 0,49.9812383 C6.20051546,54.0191628 13.5677181,56.3748596 21.4784262,56.3748596 C47.4927045,56.3748596 62.1901172,34.057884 61.3022967,14.0416872 C64.0397432,12.0328415 66.4158012,9.52684255 68.293883,6.67399255 L68.293883,6.67399255 Z" id="Shape"></path>
                </g>
            </g>
        </g>
    </g>
</svg>